<?xml version="1.0" encoding="UTF-8"?>
<!DOCTYPE svg PUBLIC "-//W3C//DTD SVG 1.1//EN" "http://www.w3.org/Graphics/SVG/1.1/DTD/svg11.dtd">
<!-- Creator: CorelDRAW -->
<svg xmlns="http://www.w3.org/2000/svg" xml:space="preserve" width="2048px" height="2048px" style="shape-rendering:geometricPrecision; text-rendering:geometricPrecision; image-rendering:optimizeQuality; fill-rule:evenodd; clip-rule:evenodd"
viewBox="0 0 2048 2048"
 xmlns:xlink="http://www.w3.org/1999/xlink">
 <defs>
  <style type="text/css">
   <![CDATA[
    .fil2 {fill:none}
    .fil12 {fill:#1A1A1A}
    .fil13 {fill:#212121}
    .fil14 {fill:#333333}
    .fil3 {fill:#424242}
    .fil15 {fill:#4D4D4D}
    .fil1 {fill:#757575}
    .fil18 {fill:#999999}
    .fil0 {fill:#9E9E9E}
    .fil19 {fill:#B3B3B3}
    .fil8 {fill:#CCCCCC}
    .fil11 {fill:#E6E6E6}
    .fil16 {fill:#FFA000}
    .fil5 {fill:#333333;fill-rule:nonzero}
    .fil17 {fill:#4D4D4D;fill-rule:nonzero}
    .fil7 {fill:#999999;fill-rule:nonzero}
    .fil6 {fill:#B3B3B3;fill-rule:nonzero}
    .fil10 {fill:#B71C1C;fill-rule:nonzero}
    .fil4 {fill:#CCCCCC;fill-rule:nonzero}
    .fil9 {fill:#E6E6E6;fill-rule:nonzero}
   ]]>
  </style>
   <clipPath id="id0">
    <path d="M1024 -0.0011811c565.541,0 1024,458.461 1024,1024 0,565.541 -458.461,1024 -1024,1024 -565.541,0 -1024,-458.461 -1024,-1024 0,-565.541 458.461,-1024 1024,-1024z"/>
   </clipPath>
 </defs>
 <g id="Layer_x0020_1">
  <metadata id="CorelCorpID_0Corel-Layer"/>
  <path class="fil0" d="M1024 -0.0011811c565.541,0 1024,458.461 1024,1024 0,565.541 -458.461,1024 -1024,1024 -565.541,0 -1024,-458.461 -1024,-1024 0,-565.541 458.461,-1024 1024,-1024z"/>
  <g style="clip-path:url(#id0)">
   <g id="_452514632">
    <path id="_4525095441" class="fil1" d="M1074.82 666.265c-0.277559,-0.248032 -0.530315,-0.522048 -0.757087,-0.819686 -0.225591,-0.296457 -0.424016,-0.616536 -0.590552,-0.954331 -0.166536,-0.338977 -0.301181,-0.69567 -0.399213,-1.06772 -0.0980316,-0.373229 -0.16063,-0.760631 -0.183071,-1.15866l-0.858662 -15.4358c-0.022441,-0.399213 -0.00354331,-0.791339 0.0531496,-1.17165 0.056693,-0.381496 0.15,-0.751182 0.27874,-1.10551 0.127559,-0.355512 0.28937,-0.693308 0.480709,-1.01339 0.191339,-0.32126 0.413386,-0.62126 0.661418,-0.89882 0.248032,-0.277559 0.522048,-0.531496 0.818505,-0.757087 0.297638,-0.225591 0.617717,-0.424016 0.955513,-0.590552 0.338977,-0.166536 0.694489,-0.301181 1.06654,-0.399213 0.373229,-0.0980316 0.760631,-0.16063 1.15866,-0.183071 0.833859,-0.0472441 1.63937,0.0874016 2.3752,0.368504 0.245669,0.0933072 0.483071,0.20315 0.712205,0.328347 0.458268,0.249213 0.879922,0.558662 1.25433,0.918898l0.172441 0.172441 1.03228 1.03228 52.6347 -2.93032 -0.220866 -3.97559c-0.0153543,-0.275197 -0.00236221,-0.543308 0.0366142,-0.806694 0.0389764,-0.262205 0.103937,-0.518504 0.19252,-0.761812 0.0885827,-0.244488 0.199606,-0.478347 0.33189,-0.699213 0.132284,-0.220866 0.284646,-0.427559 0.455906,-0.618898 0.170079,-0.191339 0.360236,-0.366142 0.564567,-0.522048 0.204331,-0.154725 0.425197,-0.291733 0.659056,-0.4063 0.232677,-0.114567 0.479528,-0.207874 0.735827,-0.275197 0.256299,-0.068504 0.523229,-0.111024 0.798426,-0.126378 0.274016,-0.0153543 0.542126,-0.00236221 0.80315,0.0366142l0.00354331 0 0.00354331 0.0011811c0.259843,0.0377953 0.510237,0.101575 0.751182,0.188977l0.00708662 0.0011811 0.00708662 0.00354331c0.242126,0.0874016 0.473622,0.197244 0.692127,0.328347 0.441733,0.264567 0.829134,0.611811 1.14095,1.02047l7.75631 7.75631 0.18189 0 1.36772 0.00944883 1.36772 0.0153543 1.37008 0.0212599 1.3689 0.0283465 1.37126 0.0354331 1.37008 0.0425197 1.37126 0.0496063 1.37008 0.056693 1.37126 0.0649607 1.37008 0.0720473 1.37008 0.0814961 1.3689 0.0897638 1.36772 0.0980316 1.36772 0.106299 1.36536 0.116929 1.36536 0.125197 1.36299 0.134646 1.36063 0.145276 1.35945 0.155906 1.35827 0.165354 1.35473 0.175984 1.35354 0.186614 1.35 0.198425 1.34882 0.209055 1.3441 0.220866 1.34173 0.232677 1.33937 0.244488 1.20354 0.231496 0.223229 0.0437008 0.0531496 0.0106299 1.34055 0.272835 0.0448819 0.00944883 0.158268 0.0330709 1.10197 0.238583 0.11811 0.0259843 0.068504 0.0141732 0.218504 0.0507874c0.894095,0.200788 1.79291,0.411024 2.69173,0.635434l0.090945 0.022441c0.409843,0.101575 0.822048,0.207874 1.23189,0.316536l0.137008 0.0354331 0.165354 0.0448819 1.24606 0.340158 0.0484252 0.0129921 0.0377953 0.0106299c0.467717,0.131102 0.935434,0.269292 1.40315,0.407481l0.0177165 0.00472441 0.0236221 0.00708662c0.478347,0.142913 0.955513,0.28937 1.4315,0.440552 0.453544,0.144095 0.907087,0.291733 1.35945,0.442914l0.0897638 0.0295276 0.0673229 0.0236221c0.444095,0.15 0.887009,0.302362 1.32874,0.46063l0.0448819 0.0165354c0.474804,0.168898 0.948426,0.343701 1.41851,0.523229l0.0129921 0.00472441 0.0141732 0.00590552c0.444095,0.168898 0.887009,0.343701 1.32756,0.520867l0.0779528 0.0307087 0.109843 0.0448819c0.431103,0.175984 0.862205,0.355512 1.28858,0.539764l0.00590552 0.00236221 0.0106299 0.00472441c1.85079,0.798426 3.65788,1.67717 5.40119,2.64921l0.0271654 0.0153543 0.0200788 0.011811c0.855119,0.477166 1.69488,0.976772 2.51575,1.5l0.0448819 0.0283465 0.0519685 0.034252c0.392126,0.251575 0.779528,0.507874 1.16339,0.770079l0.0330709 0.0212599 0.0188977 0.0141732c0.400394,0.274016 0.797245,0.552756 1.18583,0.838583l0.0141732 0.0106299 0.022441 0.0177165c0.387402,0.284646 0.77126,0.577559 1.14921,0.874016l0.0259843 0.0212599c0.762993,0.602363 1.50354,1.23071 2.21929,1.88504l0.0330709 0.0295276 0.0437008 0.0425197c0.338977,0.311811 0.672048,0.629528 1.00039,0.954331l0.0307087 0.0283465 0.022441 0.022441c0.343701,0.341339 0.681497,0.689764 1.01221,1.04528l1216 1216 -1.75158 -1.75158 0.71693 0.683859 1.03465 1.06772 0.990946 1.1126 0.947245 1.15748 0.89882 1.20236 0.850394 1.25079 0.798426 1.29803 0.539764 0.959056 0.509056 0.97441 0.478347 0.986221 0.448819 0.999213 0.419292 1.01102 0.392126 1.02165 0.364961 1.0311 0.337796 1.04173 0.312992 1.04882 0.287008 1.05709 0.264567 1.06417 0.239764 1.07008 0.218504 1.0748 0.196063 1.07953 0.175984 1.08307 0.155906 1.08662 0.158268 1.31102 0.124016 1.31929 0.0921261 1.32638 0.0602363 1.33347 0.0295276 1.33937 -0.0011811 1.3441 -0.0295276 1.35 -0.056693 1.35354 -0.0838583 1.35591 -0.109843 1.35945 -0.133465 1.36063 -0.158268 1.36299 -0.180709 1.36181 -0.20315 1.36299 -0.223229 1.36063 -0.243307 1.35945 -0.262205 1.35709 -0.279921 1.35354 -0.296457 1.35 -0.312992 1.34528 -0.264567 1.08189 306.026 306.026 3.80551 4.21536 3.70512 4.3063 3.60118 4.3937 3.49607 4.47992 3.39095 4.56378 3.2811 4.64646 3.17244 4.72678 3.05906 4.80473 2.94685 4.8815 2.82992 4.95709 2.71299 5.02796 2.59488 5.1 2.47323 5.16851 2.3504 5.23465 2.22638 5.29961 2.10118 5.36339 1.97126 5.42363 1.84252 5.48268 1.71142 5.54056 1.57795 5.59607 1.44213 5.64804 1.30512 5.7 1.16693 5.74961 1.02638 5.79685 0.883465 5.84292 0.740552 5.88662 0.594095 5.92796 0.446457 5.96811 0.297638 6.00591 0.145276 6.04134 -0.00708662 6.0756 -0.161811 6.10749 -0.316536 6.10158 -0.467717 6.05788 -0.617717 6.01063 -0.766536 5.96457 -0.911812 5.91497 -1.05591 5.863 -1.19882 5.80985 -1.33819 5.75552 -1.47638 5.69882 -1.61221 5.64095 -1.74803 5.58071 -1.87914 5.51811 -2.01142 5.45552 -2.13898 5.38937 -2.26536 5.32205 -2.39055 5.25355 -2.51221 5.1815 -2.63504 5.10945 -2.75315 5.03504 -2.87008 4.95945 -2.98465 4.8815 -3.09803 4.80118 -3.21024 4.71969 -3.31772 4.63583 -3.42638 4.55079 -3.5315 4.46457 -3.63544 4.37481 -3.73701 4.28504 -3.83622 4.19292 -3.93425 4.09961 -4.02992 4.00276 -4.12323 3.90473 -4.21536 3.80551 -4.3063 3.70512 -4.3937 3.60118 -4.47992 3.49607 -4.56378 3.39095 -4.64646 3.2811 -4.72678 3.17244 -4.80591 3.05906 -4.8815 2.94685 -4.95591 2.82992 -5.02914 2.71299 -5.09882 2.59488 -5.16851 2.47323 -5.23465 2.3504 -5.30079 2.22638 -5.36221 2.10118 -5.42363 1.97126 -5.48386 1.84252 -5.53937 1.71142 -5.59607 1.57795 -5.64804 1.44213 -5.7 1.30512 -5.74961 1.16693 -5.79804 1.02638 -5.84174 0.883465 -5.88662 0.740552 -5.92796 0.594095 -5.96811 0.446457 -6.00591 0.297638 -6.04134 0.145276 -6.0756 -0.00708662 -6.10749 -0.161811 -6.10158 -0.316536 -6.05788 -0.467717 -6.01063 -0.617717 -5.96457 -0.766536 -5.91497 -0.911812 -5.863 -1.05591 -5.80985 -1.19882 -5.75552 -1.33819 -5.69882 -1.47638 -5.64095 -1.61221 -5.58071 -1.74803 -5.51811 -1.87914 -5.45552 -2.01142 -5.38937 -2.13898 -5.32205 -2.26536 -5.25355 -2.39055 -5.1815 -2.51221 -5.10945 -2.63504 -5.03504 -2.75315 -4.95945 -2.87008 -4.8815 -2.98465 -4.80118 -3.09803 -4.71969 -3.21024 -4.63583 -3.31772 -4.55079 -3.42638 -4.46457 -3.5315 -4.37481 -3.63544 -4.28504 -3.73701 -4.19292 -3.83622 -4.09961 -3.93425 -125.7 -125.701 -0.536221 0.831497 -1.04291 1.53307 -1.07835 1.50473 -1.1126 1.47874 -1.14685 1.44921 -1.17992 1.42087 -1.21417 1.39134 -1.24488 1.36181 -1.27795 1.3311 -1.30866 1.29921 -1.33937 1.2685 -1.09606 0.994489 -1.11496 0.973229 -1.13386 0.951969 -1.15276 0.930709 -1.16929 0.908268 -1.18819 0.885827 -1.20473 0.863386 -1.22126 0.839764 -1.23898 0.817323 -1.25433 0.793701 -1.27087 0.770079 -1.28622 0.746457 -1.30158 0.721654 -1.31693 0.696851 -1.3311 0.670867 -1.34646 0.647245 -1.35945 0.62126 -1.37362 0.594095 -1.38662 0.569292 -1.40079 0.542126 -1.4126 0.516142 -1.42441 0.487796 -1.4374 0.461811 -1.44921 0.433465 -1.46102 0.405118 -1.47165 0.377953 -1.48228 0.348425 -1.49291 0.320079 -1.50236 0.290551 -1.51299 0.261024 -1.52244 0.231496 -1.53189 0.200788 -0.514961 10.2532 32.1768 32.1768 0.925985 1.12087 0.700394 1.28504 0.441733 1.41851 0.154725 1.52008 0 14.3268 -0.154725 1.52126 -0.441733 1.41851 -0.700394 1.28504 -0.925985 1.12087 -1.12087 0.925985 -1.28504 0.700394 -1.41851 0.441733 -1.52008 0.154725 -66.4926 0 -1.52008 -0.154725 -1.41969 -0.441733 -1.28504 -0.700394 -1.12087 -0.925985 -64.8331 -64.8331 -1.35945 3.48898 -1.44095 3.5315 -1.49646 3.50079 -1.54961 3.47126 -1.60394 3.44173 -1.65709 3.40985 -1.71024 3.37914 -1.76102 3.34725 -1.81299 3.31536 -1.86378 3.2811 -1.91339 3.24922 -1.96417 3.21378 -2.0126 3.18071 -2.06221 3.14528 -2.10945 3.10866 -2.15669 3.07441 -2.20512 3.03662 -2.25 3.00118 -2.29725 2.96221 -2.34213 2.92441 -2.38583 2.88662 -2.43189 2.84764 -2.47441 2.80748 -2.51811 2.76732 -2.55945 2.72717 -2.60315 2.68583 -2.64331 2.64449 -2.68583 2.60315 -2.72481 2.55945 -4.21536 3.80551 -4.3063 3.70512 -4.3937 3.60118 -4.47992 3.49725 -4.56378 3.38977 -4.64646 3.28229 -4.72678 3.17126 -4.80473 3.06024 -4.8815 2.94567 -4.95591 2.8311 -5.02914 2.71299 -5.1 2.5937 -5.16733 2.47441 -5.23583 2.3504 -5.29961 2.22638 -5.36339 2.1 -5.42363 1.97244 -5.48268 1.84252 -5.54056 1.71024 -5.59489 1.57795 -5.64922 1.44213 -5.7 1.30512 -5.74961 1.16693 -5.79685 1.02638 -5.84292 0.883465 -5.88544 0.740552 -5.92796 0.594095 -5.96811 0.446457 -6.00591 0.297638 -6.04134 0.145276 -6.0756 -0.00708662 -6.10749 -0.161811 -6.10158 -0.316536 -6.05788 -0.467717 -6.01182 -0.617717 -5.96339 -0.766536 -5.91497 -0.911812 -5.863 -1.05591 -5.81103 -1.19764 -5.75552 -1.33819 -5.69882 -1.47638 -5.64095 -1.61339 -5.58071 -1.74685 -5.51811 -1.88032 -5.45552 -2.01024 -5.38937 -2.13898 -5.32205 -2.26536 -5.25237 -2.39055 -5.18268 -2.51339 -5.10945 -2.63386 -5.03504 -2.75315 -4.95945 -2.87008 -4.88032 -2.98465 -4.80118 -3.09921 -4.71969 -3.20906 -4.63583 -3.3189 -4.55197 -3.42638 -4.46339 -3.5315 -4.37599 -3.63544 -4.28504 -3.73701 -4.19292 -3.83622 -4.09843 -3.93425 -4.00276 -4.02992 -3.90473 -4.12323 -1202.89 -1202.89 -1.10669 -1.0252c-1.38307,-1.29567 -2.74725,-2.60788 -4.09843,-3.93425 -1.35118,-1.32756 -2.68465,-2.67166 -4.00276,-4.02992 -1.31929,-1.35827 -2.61969,-2.73307 -3.90473,-4.12323 -1.28622,-1.38898 -2.55355,-2.79449 -3.80551,-4.21536 -1.25197,-1.42087 -2.4874,-2.85591 -3.70512,-4.3063 -1.21772,-1.45039 -2.41772,-2.91496 -3.60118,-4.3937 -1.18347,-1.47992 -2.34803,-2.97166 -3.49607,-4.47992 -1.14803,-1.50827 -2.27953,-3.02835 -3.39095,-4.56378 -1.11142,-1.53543 -2.20512,-3.08386 -3.2811,-4.64646 -1.07599,-1.56142 -2.13425,-3.13819 -3.17244,-4.72678 -1.03819,-1.58858 -2.05866,-3.19016 -3.05906,-4.80473 -1.00039,-1.61457 -1.98425,-3.24213 -2.94685,-4.8815 -0.962599,-1.63937 -1.9063,-3.29173 -2.82992,-4.95591 -0.923623,-1.66417 -1.82953,-3.34134 -2.71418,-5.02914 -0.884646,-1.68898 -1.74921,-3.38859 -2.5937,-5.1 -0.844489,-1.71142 -1.6689,-3.43347 -2.47323,-5.16733 -0.804331,-1.73504 -1.58858,-3.47953 -2.35158,-5.23583 -0.762993,-1.75512 -1.50473,-3.52205 -2.22638,-5.29961 -0.721654,-1.77756 -1.42087,-3.56575 -2.1,-5.36339 -0.679134,-1.79764 -1.33701,-3.60591 -1.97244,-5.42363 -0.635434,-1.81772 -1.25079,-3.64488 -1.84252,-5.48268 -0.592914,-1.8378 -1.16221,-3.68504 -1.71024,-5.54056 -0.548032,-1.85551 -1.0748,-3.72048 -1.57795,-5.59489 -0.50315,-1.87441 -0.983859,-3.75709 -1.44213,-5.64922 -0.457087,-1.89213 -0.892914,-3.79134 -1.30512,-5.7 -0.412205,-1.90866 -0.800788,-3.82559 -1.16693,-5.74961 -0.366142,-1.92402 -0.707481,-3.8563 -1.02638,-5.79685 -0.318898,-1.94055 -0.614174,-3.88819 -0.884646,-5.84292 -0.271654,-1.95591 -0.517323,-3.91654 -0.739371,-5.88544 -0.222047,-1.9689 -0.421654,-3.94488 -0.595276,-5.92796 -0.173622,-1.98307 -0.322441,-3.97205 -0.446457,-5.96811 -0.124016,-1.99606 -0.222047,-3.99803 -0.296457,-6.00591 -0.0744095,-2.00788 -0.122835,-4.02166 -0.146457,-6.04134 -0.0236221,-2.01969 -0.0212599,-4.04528 0.00708662,-6.0756 0.0283465,-2.03032 0.0814961,-4.06654 0.161811,-6.10749 0.0791339,-2.04095 0.186614,-4.07481 0.316536,-6.10158 0.131102,-2.02559 0.285827,-4.04646 0.467717,-6.05788 0.180709,-2.01142 0.387402,-4.01575 0.617717,-6.01182 0.231496,-1.99606 0.486615,-3.98386 0.766536,-5.96339 0.279921,-1.97953 0.583465,-3.95197 0.911812,-5.91497 0.328347,-1.96299 0.680315,-3.91772 1.05591,-5.863 0.376772,-1.94528 0.774804,-3.88347 1.19764,-5.81103 0.422835,-1.92756 0.870473,-3.84685 1.33937,-5.75552 0.468898,-1.90866 0.961418,-3.80906 1.47638,-5.69882 0.514961,-1.88977 1.05236,-3.77008 1.61221,-5.64095 0.561024,-1.87087 1.14331,-3.73111 1.74803,-5.58071 0.604725,-1.84961 1.23071,-3.68859 1.87914,-5.51811 0.648426,-1.82835 1.31811,-3.64843 2.01024,-5.45552 0.690945,-1.80709 1.40433,-3.60355 2.13898,-5.38937 0.734646,-1.78583 1.49055,-3.55985 2.26654,-5.32205 0.775985,-1.76221 1.57205,-3.5126 2.38937,-5.25237 0.817323,-1.73858 1.65473,-3.46772 2.51339,-5.18268 0.857481,-1.71496 1.73622,-3.41811 2.63386,-5.10945 0.897638,-1.69134 1.81536,-3.36969 2.75315,-5.03504 0.937796,-1.66654 1.89449,-3.3189 2.87008,-4.95945 0.976772,-1.64055 1.97126,-3.26811 2.98583,-4.8815 1.01339,-1.61339 2.04685,-3.21378 3.09803,-4.80118 1.05236,-1.5874 2.12126,-3.15945 3.20906,-4.71851 1.0878,-1.55906 2.19449,-3.10512 3.3189,-4.63701 1.12441,-1.53071 2.26654,-3.04843 3.42638,-4.55079 1.15984,-1.50354 2.33858,-2.99173 3.53268,-4.46457 1.19528,-1.47402 2.40591,-2.9315 3.63425,-4.37481 1.22835,-1.44331 2.47441,-2.87244 3.73701,-4.28504 1.2626,-1.41378 2.54055,-2.81103 3.83622,-4.19292 1.29567,-1.38189 2.60669,-2.74961 3.93425,-4.09961 1.32756,-1.35 2.67047,-2.68465 4.02992,-4.00276 1.35945,-1.31811 2.73425,-2.61969 4.12441,-3.90473 1.38898,-1.28504 2.79449,-2.55355 4.21536,-3.80551 1.42087,-1.25079 2.85591,-2.4874 4.3063,-3.70512 1.45039,-1.21772 2.91496,-2.41772 4.3937,-3.60118 1.47992,-1.18228 2.97166,-2.34803 4.47992,-3.49607 1.50827,-1.14803 3.02835,-2.27953 4.56378,-3.39095 1.53543,-1.11142 3.08386,-2.20512 4.64646,-3.2811 1.56142,-1.07599 3.13819,-2.13425 4.72678,-3.17244 1.58858,-1.03819 3.19016,-2.05866 4.80473,-3.05906 1.61457,-1.00158 3.24213,-1.98425 4.8815,-2.94685 1.63937,-0.962599 3.29173,-1.9063 4.95591,-2.82992 1.66417,-0.923623 3.34134,-1.82835 5.02914,-2.71299 1.68898,-0.884646 3.3874,-1.7504 5.09882,-2.59488 1.71142,-0.844489 3.43465,-1.6689 5.16851,-2.47323 1.73504,-0.804331 3.47835,-1.5874 5.23465,-2.3504 1.75512,-0.762993 3.52323,-1.50473 5.30079,-2.22638 1.77756,-0.721654 3.56457,-1.42205 5.36221,-2.10118 1.79764,-0.679134 3.60591,-1.33583 5.42363,-1.97126 1.81772,-0.635434 3.64607,-1.24961 5.48386,-1.84252 1.8378,-0.591733 3.68386,-1.16339 5.53937,-1.71142 1.85669,-0.548032 3.72166,-1.0748 5.59607,-1.57795 1.87441,-0.50315 3.75591,-0.983859 5.64804,-1.44213 1.89095,-0.458268 3.79134,-0.892914 5.7,-1.30512 1.90866,-0.412205 3.82559,-0.800788 5.74961,-1.16693 1.92402,-0.366142 3.85748,-0.707481 5.79804,-1.02638 1.94055,-0.318898 3.88701,-0.612993 5.84174,-0.883465 1.95473,-0.271654 3.91772,-0.518504 5.88662,-0.740552 1.9689,-0.222047 3.94488,-0.420473 5.92796,-0.594095 1.98307,-0.173622 3.97205,-0.322441 5.96811,-0.446457 1.99606,-0.124016 3.99803,-0.223229 6.00591,-0.297638 2.00788,-0.0744095 4.02166,-0.121654 6.04134,-0.145276 2.01969,-0.0236221 4.04528,-0.0212599 6.0756,0.00708662 2.03032,0.0283465 4.06654,0.0814961 6.10749,0.161811 1.4374,0.056693 2.87244,0.124016 4.30276,0.206693 1.43032,0.0814961 2.85709,0.177165 4.28032,0.283465 1.42323,0.10748 2.84292,0.225591 4.25906,0.356693 1.41496,0.132284 2.82874,0.276378 4.23662,0.432284 1.40788,0.155906 2.81221,0.324803 4.21181,0.505512 1.40079,0.179528 2.79567,0.373229 4.18819,0.577559 1.39252,0.205512 2.7815,0.421654 4.16457,0.650788 1.38307,0.229134 2.7626,0.468898 4.1374,0.721654 1.37599,0.252756 2.74607,0.517323 4.1126,0.793701 1.36654,0.276378 2.72835,0.563386 4.08544,0.862205 1.35709,0.3 2.71181,0.61063 4.05945,0.933072 1.34764,0.322441 2.69055,0.656693 4.02992,1.00158 1.33819,0.346063 2.67402,0.701575 4.00276,1.0689 1.32992,0.368504 2.65394,0.747638 3.97323,1.1374 1.31929,0.390945 2.63268,0.79252 3.94252,1.20473 1.30984,0.412205 2.61378,0.83504 3.913,1.26969 1.29921,0.434646 2.5937,0.879922 3.88229,1.33583 1.28858,0.455906 2.57244,0.922442 3.8504,1.39961 1.27795,0.477166 2.55118,0.966142 3.81851,1.46457 1.26732,0.499607 2.52874,1.00866 3.78544,1.52835 1.25551,0.519685 2.5063,1.05 3.75118,1.59095 1.24488,0.539764 2.48504,1.09134 3.71811,1.65236 1.23307,0.561024 2.4626,1.13386 3.68386,1.71496 1.22126,0.582284 2.4378,1.17402 3.64725,1.7752 1.20945,0.602363 2.41418,1.21299 3.61181,1.83425 1.19764,0.62126 2.38937,1.25315 3.5752,1.89449 1.18583,0.641339 2.36575,1.29331 3.53859,1.95354 1.17284,0.661418 2.33977,1.3311 3.49961,2.01142 1.16102,0.679134 2.31496,1.37008 3.46181,2.06929 1.14803,0.698032 2.28898,1.40669 3.42284,2.1248 1.13386,0.718111 2.26181,1.44567 3.38268,2.1815 1.12087,0.737008 2.23465,1.48228 3.34252,2.23701l54.4748 -79.7351 -6.30945 -15.841 -70.0571 -70.0571c-0.174803,-0.161811 -0.341339,-0.328347 -0.499607,-0.499607 -0.309449,-0.336614 -0.585827,-0.694489 -0.825591,-1.07126 -0.478347,-0.755906 -0.810237,-1.59331 -0.960237,-2.52047 -0.0755906,-0.462992 -0.105118,-0.948426 -0.0850394,-1.4563 0.0212599,-0.571654 0.056693,-1.17284 0.106299,-1.79882 0.0484252,-0.625985 0.109843,-1.27677 0.185433,-1.95236 0.0755906,-0.67441 0.162992,-1.37244 0.264567,-2.08937 0.102756,-0.71693 0.216142,-1.45394 0.346063,-2.20748 0.129921,-0.753544 0.272835,-1.5248 0.429922,-2.30906 0.157087,-0.785434 0.328347,-1.58386 0.51378,-2.3941 0.185433,-0.809056 0.38504,-1.6311 0.598819,-2.46024 0.214961,-0.829134 0.441733,-1.66654 0.68504,-2.50984 0.243307,-0.843308 0.500788,-1.69134 0.773623,-2.54292 0.272835,-0.851575 0.561024,-1.70433 0.863386,-2.55827 0.303544,-0.852757 0.620079,-1.70788 0.95315,-2.55709 0.333071,-0.850394 0.682678,-1.69606 1.04646,-2.53701 0.36378,-0.840946 0.742914,-1.67362 1.13858,-2.49921 0.39567,-0.825591 0.806694,-1.64291 1.23425,-2.44725 0.427559,-0.804331 0.869292,-1.59685 1.32874,-2.3752 0.459449,-0.778347 0.934253,-1.54134 1.42677,-2.28662 0.49252,-0.746457 1.00039,-1.47402 1.52599,-2.1815 0.52441,-0.707481 1.06654,-1.3937 1.6252,-2.05748 0.558662,-0.66378 1.13386,-1.30394 1.72677,-1.91811 0.592914,-0.614174 1.20236,-1.20118 1.82953,-1.75984 0.627166,-0.558662 1.27087,-1.0878 1.93228,-1.58504 0.662599,-0.498426 1.34173,-0.96378 2.03858,-1.3937 0.696851,-0.429922 1.4126,-0.825591 2.14488,-1.18347 0.732284,-0.357874 1.48347,-0.677953 2.25236,-0.957875 0.768898,-0.279921 1.55669,-0.517323 2.36221,-0.712205 0.805512,-0.196063 1.62992,-0.347244 2.47205,-0.452363 0.843308,-0.105118 1.70433,-0.164173 2.58425,-0.173622 0.881103,-0.00944883 1.77992,0.0307087 2.69764,0.122835 0.917717,0.0921261 1.85433,0.23504 2.81103,0.434646 0.955513,0.198425 1.93228,0.454725 2.92796,0.766536 0.99567,0.312992 2.00906,0.681497 3.0437,1.1126 1.03465,0.431103 2.08937,0.923623 3.16299,1.47874l3.29528 1.5248 0.309449 0.127559 3.35433 1.2437 0.236221 0.080315 3.75827 1.11614 0.129921 0.0330709 3.83268 0.908268 0.375591 0.0791339 4.0063 0.750001 0.106299 0.0188977 4.32048 0.634252 0.194882 0.0248032 4.26024 0.484252 0.350788 0.034252 4.48465 0.387402 4.58859 0.295276 0.396851 0.022441 4.42441 0.206693 0.281103 0.011811 4.70079 0.16063 4.81536 0.121654 0.101575 0.00236221 4.63701 0.0933072 0.137008 0.00236221 0.376772 0.00708662 2.0315 0.0377953 2.02205 0.0377953 0.373229 0.00708662 0.248032 0.00472441c1.46575,0.0283465 2.92323,0.0590552 4.36772,0.0944883l0.12874 0.00236221 0.0744095 0.00236221c1.51181,0.0354331 3.01181,0.0779528 4.49292,0.125197l0.0944883 0.00236221 0.144095 0.00472441c1.41496,0.046063 2.81339,0.100394 4.19528,0.162992l0.214961 0.00826772 0.263386 0.0141732c1.3311,0.0625985 2.64331,0.134646 3.9378,0.216142l0.223229 0.011811 0.138189 0.0106299c1.37835,0.0897638 2.73662,0.190158 4.06536,0.308268l0.0661418 0.00590552 0.0366142 0.00354331c1.3311,0.119291 2.6315,0.253937 3.90237,0.4063l0.152362 0.0153543 0.159449 0.022441c1.21654,0.148819 2.40709,0.314173 3.56457,0.497244l0.166536 0.0236221 0.0897638 0.0165354c1.19764,0.194882 2.36103,0.409843 3.4878,0.647245l0.0885827 0.0165354 0.140551 0.034252c1.07599,0.231496 2.11772,0.486615 3.12166,0.764174l0.154725 0.0377953 0.131102 0.0413386c1.01221,0.287008 1.98425,0.596457 2.91378,0.934253l0.0992127 0.0318898 0.0437008 0.0177165c0.951969,0.350788 1.85669,0.731103 2.71536,1.14331l0.0885827 0.0377953 0.112205 0.0625985c0.810237,0.39567 1.57441,0.822048 2.2937,1.27677l0.122835 0.068504 0.0791339 0.0590552c0.754725,0.490158 1.46102,1.01221 2.10591,1.57559 0.485433,0.424016 0.927166,0.87756 1.34646,1.34646l0.246851 0.246851 188.164 188.165 69.4536 -83.419 -20.5158 -47.6504 -11.3185 -11.3185 -3.00236 -8.96694c-0.177165,-0.530315 -0.312992,-1.07244 -0.403937,-1.61575 -0.0921261,-0.543308 -0.138189,-1.0878 -0.144095,-1.62874 -0.00472441,-0.540945 0.0330709,-1.07599 0.114567,-1.59921 0.0826772,-0.522048 0.207874,-1.03228 0.376772,-1.52126 0.168898,-0.490158 0.381496,-0.959056 0.637796,-1.39961 0.256299,-0.440552 0.557481,-0.853938 0.901182,-1.23071 0.344882,-0.376772 0.733465,-0.718111 1.16575,-1.01575 0.432284,-0.298819 0.90945,-0.552756 1.43032,-0.757087l10.937 -4.27796 -12.0165 -29.015 -105.503 -105.503zm1665.32 1554.97l12.9508 12.9508 -3.90473 -4.12323 -4.00276 -4.02992 -4.09961 -3.93425 -0.943702 -0.863386z"/>
   </g>
  </g>
  <path class="fil2" d="M1024 -0.0011811c565.541,0 1024,458.461 1024,1024 0,565.541 -458.461,1024 -1024,1024 -565.541,0 -1024,-458.461 -1024,-1024 0,-565.541 458.461,-1024 1024,-1024z"/>
  <g id="_459267632">
   <polygon id="_459246032" class="fil3" points="1252.18,859.984 1271.62,849.083 1268.02,836.286 1248.34,847.737 "/>
   <polygon id="_459267128" class="fil4" points="1381.59,994.042 1367.08,1364.59 1344.98,1363.73 1359.49,993.176 "/>
   <polygon id="_459247496" class="fil4" points="1531.57,1100.26 1205.57,1277 1195,1257.51 1521,1080.76 "/>
   <polygon id="_459247760" class="fil4" points="1520.85,1277.24 1195.15,1099.95 1205.72,1080.53 1531.43,1257.82 "/>
   <path id="_459268088" class="fil5" d="M1372.55 942.355c65.3115,2.55709 123.408,31.35 164.536,75.8304 41.1272,44.4803 65.2878,104.65 62.7296,169.963 -2.55827,65.3115 -31.3512,123.408 -75.8304,164.536 -44.4815,41.1272 -104.65,65.2878 -169.963,62.7296 -65.3115,-2.55827 -123.408,-31.3512 -164.536,-75.8304 -41.126,-44.4803 -65.2878,-104.652 -62.7296,-169.963 2.55827,-65.3115 31.35,-123.409 75.8304,-164.536 44.4803,-41.1284 104.65,-65.2878 169.963,-62.7296zm129.678 108.06c-32.876,-35.5548 -79.3205,-58.5709 -131.536,-60.6154 -52.2178,-2.04567 -100.319,17.2677 -135.874,50.1426 -35.5548,32.8748 -58.5709,79.3194 -60.6166,131.536 -2.04449,52.2166 17.2677,100.319 50.1426,135.874 32.876,35.5559 79.3205,58.5709 131.537,60.6166 52.2154,2.04449 100.318,-17.2677 135.874,-50.1426 35.5548,-32.876 58.5697,-79.3205 60.6154,-131.537 2.04449,-52.2166 -17.2677,-100.319 -50.1426,-135.874z"/>
   <path id="_459250400" class="fil6" d="M1370.87 985.296c106.916,4.18701 190.193,94.2544 186.006,201.17 -4.18819,106.915 -94.2544,190.193 -201.17,186.005 -106.915,-4.18701 -190.193,-94.2532 -186.005,-201.169 4.18701,-106.916 94.2532,-190.193 201.169,-186.006zm120.847 74.8394c-30.3886,-32.8642 -73.3182,-54.1382 -121.584,-56.0292 -48.2658,-1.88977 -92.7284,15.9614 -125.593,46.3489 -32.8642,30.3874 -54.1394,73.3182 -56.0292,121.584 -1.89095,48.2646 15.9602,92.7272 46.3477,125.593 30.3886,32.8654 73.3182,54.1394 121.584,56.0292 48.2658,1.89095 92.7284,-15.9602 125.593,-46.3489 32.8654,-30.3874 54.1394,-73.317 56.0292,-121.583 1.89095,-48.2658 -15.9614,-92.7284 -46.3477,-125.594z"/>
   <path id="_459277568" class="fil7" d="M1366.07 1107.87c19.6063,0.768898 37.0488,9.41339 49.3973,22.7681 12.3484,13.3559 19.6028,31.4209 18.8351,51.0272 -0.767717,19.6063 -9.41221,37.0488 -22.7681,49.3949 -13.3547,12.3484 -31.4209,19.6028 -51.026,18.8351 -19.6063,-0.767717 -37.0488,-9.41339 -49.3973,-22.7681 -12.3484,-13.3536 -19.6028,-31.4173 -18.8351,-51.0248 0.767717,-19.6051 9.41339,-37.0488 22.7681,-49.3973 13.3547,-12.3484 31.4209,-19.6028 51.026,-18.8351z"/>
   <path id="_459255344" class="fil8" d="M1342.51 1169.09l-12.9933 -31.2685 23.4024 -9.7252 13.1799 31.7162c4.22835,1.78347 7.78583,5.16733 9.68505,9.73938 1.92047,4.62166 1.78583,9.58465 0.0141732,13.8721 -1.76811,4.28859 -5.17441,7.9004 -9.79607,9.82087 -4.62166,1.92047 -9.58347,1.78583 -13.8721,0.0141732 -4.28859,-1.76811 -7.90158,-5.17441 -9.82205,-9.79607 -1.92047,-4.62166 -1.78583,-9.58583 -0.0141732,-13.8721 0.0696851,-0.167717 0.141732,-0.334252 0.216142,-0.500788z"/>
   <polygon id="_459253184" class="fil4" points="703.019,990.344 688.505,1360.89 666.409,1360.03 680.923,989.478 "/>
   <polygon id="_459265496" class="fil4" points="853.003,1096.56 526.996,1273.31 516.424,1253.81 842.431,1077.07 "/>
   <polygon id="_459276704" class="fil4" points="842.283,1273.54 516.574,1096.25 527.145,1076.83 852.853,1254.12 "/>
   <path id="_459262376" class="fil5" d="M693.977 938.656c65.3115,2.55827 123.408,31.35 164.536,75.8304 41.1284,44.4803 65.2878,104.652 62.7296,169.963 -2.55709,65.3115 -31.35,123.409 -75.8304,164.536 -44.4803,41.1284 -104.65,65.2878 -169.962,62.7296 -65.3126,-2.55709 -123.409,-31.35 -164.536,-75.8304 -41.1272,-44.4803 -65.2878,-104.65 -62.7308,-169.962 2.55827,-65.3126 31.35,-123.409 75.8316,-164.537 44.4803,-41.1272 104.649,-65.2878 169.962,-62.7296zm129.678 108.062c-32.8748,-35.5559 -79.3194,-58.5709 -131.536,-60.6166 -52.2178,-2.04449 -100.319,17.2689 -135.874,50.1437 -35.5548,32.8736 -58.5709,79.3194 -60.6154,131.536 -2.04567,52.2166 17.2665,100.318 50.1426,135.874 32.8748,35.5548 79.3194,58.5709 131.536,60.6154 52.2166,2.04567 100.318,-17.2665 135.874,-50.1426 35.5559,-32.8748 58.5709,-79.3194 60.6154,-131.536 2.04567,-52.2166 -17.2677,-100.319 -50.1426,-135.874z"/>
   <path id="_459271520" class="fil6" d="M692.295 981.598c106.916,4.18701 190.193,94.2532 186.006,201.169 -4.18701,106.916 -94.2544,190.193 -201.169,186.006 -106.916,-4.18701 -190.193,-94.2544 -186.006,-201.17 4.18701,-106.915 94.2544,-190.193 201.169,-186.005zm120.847 74.8394c-30.3874,-32.8654 -73.3182,-54.1394 -121.583,-56.0292 -48.267,-1.89095 -92.7296,15.9614 -125.594,46.3489 -32.8642,30.3862 -54.1382,73.3182 -56.0292,121.583 -1.88977,48.2658 15.9602,92.7284 46.3489,125.594 30.3874,32.8642 73.3182,54.1382 121.583,56.0292 48.2658,1.88977 92.7284,-15.9614 125.594,-46.3489 32.8654,-30.3874 54.1382,-73.3182 56.0292,-121.584 1.88977,-48.2646 -15.9614,-92.7284 -46.3489,-125.593z"/>
   <path id="_459250712" class="fil7" d="M687.495 1104.17c19.6051,0.767717 37.0477,9.41339 49.3973,22.7681 12.3484,13.3547 19.6028,31.4209 18.8339,51.026 -0.767717,19.6075 -9.41221,37.0488 -22.7669,49.3961 -13.3559,12.3484 -31.4209,19.6028 -51.0272,18.8351 -19.6051,-0.767717 -37.0488,-9.41339 -49.3973,-22.7681 -12.3484,-13.3536 -19.6028,-31.4185 -18.8351,-51.0248 0.767717,-19.6063 9.41339,-37.0488 22.7681,-49.3973 13.3559,-12.3484 31.4209,-19.6028 51.0272,-18.8351z"/>
   <path id="_459266528" class="fil9" d="M686.122 1139.24c9.92481,0.388583 18.7547,4.76457 25.0063,11.5252 6.2504,6.76064 9.92363,15.9059 9.53387,25.8307 -0.388583,9.92599 -4.76457,18.7547 -11.5252,25.0051 -6.76064,6.25158 -15.9059,9.92363 -25.8307,9.53505 -9.92481,-0.388583 -18.7547,-4.76457 -25.0063,-11.5252 -6.2504,-6.76064 -9.92363,-15.9047 -9.53505,-25.8307 0.389764,-9.92481 4.76575,-18.7547 11.5264,-25.0063 6.76064,-6.2504 15.9059,-9.92245 25.8307,-9.53387z"/>
   <path id="_459251528" class="fil8" d="M689.808 1158.73l31.1788 -13.2071 9.88465 23.3362 -31.624 13.3961c-1.75512,4.24134 -5.11418,7.82127 -9.67324,9.75237 -4.60866,1.95118 -9.57284,1.85079 -13.8721,0.108662 -4.3004,-1.73977 -7.93583,-5.12126 -9.8882,-9.72993 -1.95118,-4.60748 -1.85079,-9.57048 -0.108662,-13.8709 1.73977,-4.3004 5.12126,-7.93701 9.72993,-9.8882 4.60748,-1.95236 9.57166,-1.85197 13.8709,-0.108662 0.168898,0.0673229 0.335433,0.138189 0.501969,0.211417z"/>
   <polygon id="_459260288" class="fil6" points="1195.89,754.987 1263.49,918.216 1244.14,925.877 1176.54,762.649 "/>
   <polygon id="_459277592" class="fil6" points="862.37,787.494 953.081,1004.64 933.737,1012.3 843.025,795.155 "/>
   <path id="_459245504" class="fil10" d="M1321.47 1145.14l-88.7694 -212.249 -200.411 240.709c11.7295,26.341 -31.3559,45.8185 -45.091,14.4803l-241.799 -7.71851c-35.7508,-1.14921 -47.3233,-25.6288 -27.8173,-54.176l154.739 -226.492 -15.5126 -38.9469 43.9276 -17.3977 111.667 280.329 199.751 -239.914 -27.0425 -62.8099 43.7729 -18.1465 136.358 324.186 -43.7729 18.1465zm-353.469 -5.25473l-74.5867 -187.241 -123.611 180.925 198.197 6.31654z"/>
   <path id="_459250328" class="fil11" d="M855.2 847.967l37.8733 -14.8146c4.17048,-1.6311 8.92914,-0.00236221 10.7681,4.07717l4.42323 9.81615 -54.1406 20.6563 -3.00236 -8.96694c-1.42087,-4.24725 -0.0921261,-9.13701 4.07835,-10.7681z"/>
   <path id="_459258584" class="fil12" d="M842.619 760.264c35.1177,18.1606 116.612,-4.78937 115.274,29.3587l0 0.00354331c-1.01575,25.911 -120.954,25.9477 -144.19,28.2567 -8.09292,0.804331 -20.4343,-1.50591 -20.1166,-9.63426 0.71693,-18.3095 14.6599,-65.7615 49.0323,-47.9847z"/>
   <path id="_459255080" class="fil11" d="M1181.4 805.061l37.8733 -14.8146c4.17048,-1.6311 8.92914,-0.00236221 10.7681,4.07717l4.42323 9.81615 -54.1406 20.6563 -3.00236 -8.96694c-1.42087,-4.24725 -0.090945,-9.13701 4.07835,-10.7681z"/>
   <path id="_459261704" class="fil8" d="M1093.99 645.26l2.34449 17.4165c12.7784,-1.55079 25.5886,-2.85473 38.4343,-3.68859 12.3957,-0.801969 24.9248,-1.23898 37.3252,-0.316536 15.9697,1.18937 36.3449,5.14607 42.5315,22.2662 0.646063,1.78937 1.09606,3.64607 1.34882,5.53347 1.74331,12.9886 -3.48662,28.5107 -8.15079,40.5532 -5.78268,14.9303 -12.7004,29.3894 -19.591,43.8343l-0.164173 0.343701c-2.96929,7.11497 10.1362,14.5606 18.0579,3.26103l0.120473 -0.253937c7.4315,-15.5894 14.7921,-31.311 20.4532,-47.6044 4.54961,-13.0996 8.60434,-28.5591 6.73347,-42.4949 -0.778347,-5.79922 -2.37638,-11.5099 -5.34095,-16.5886 -8.24056,-14.1059 -25.5744,-19.8532 -40.7339,-22.6949 -14.5819,-2.73425 -29.7591,-3.28347 -44.5654,-3.03189 -16.3075,0.27874 -32.5985,1.59331 -48.8032,3.46536z"/>
   <path id="_459248408" class="fil13" d="M1082.81 643.543l56.6067 -3.15118 1.15748 20.7921 -56.6067 3.15c-0.868111,1.90512 -2.74016,3.2811 -4.96418,3.40512l0 0c-3.18898,0.177165 -5.94213,-2.28425 -6.1193,-5.47441l-0.858662 -15.4358c-0.178347,-3.18898 2.28425,-5.94213 5.47323,-6.1193l0 0c2.2252,-0.124016 4.2378,1.03701 5.31142,2.83347z"/>
   <rect id="_459258128" class="fil14" transform="matrix(0.127083 -0.00707269 0.0781103 1.4035 1135.24 632.63)" width="62.8914" height="26.1721" rx="4.00276" ry="4.00276"/>
   <polygon id="_459270296" class="fil15" points="682.535,1168.45 685.751,1170.48 688.966,1172.51 688.817,1176.31 688.668,1180.11 685.304,1181.88 681.94,1183.65 678.723,1181.62 675.507,1179.59 675.656,1175.79 675.805,1171.99 679.17,1170.22 "/>
   <polygon id="_459253928" class="fil15" points="1352.18,1176.43 1354.23,1173.23 1356.28,1170.03 1360.08,1170.21 1363.88,1170.38 1365.63,1173.76 1367.37,1177.13 1365.32,1180.34 1363.27,1183.54 1359.47,1183.36 1355.68,1183.19 1353.93,1179.81 "/>
   <path id="_459264392" class="fil3" d="M1266.42 818.621l12.6071 -3.54449c2.27599,-0.640158 5.07048,0.62126 5.30079,2.97402l4.63111 47.217c0.231496,2.35158 -0.698032,4.66063 -2.97402,5.30079l-4.59567 1.29213c-2.2748,0.638977 -4.66063,-0.698032 -5.30079,-2.9752l-12.6425 -44.9634c-0.640158,-2.27599 0.698032,-4.66181 2.97402,-5.30079z"/>
   <path id="_459271376" class="fil16" d="M1269.57 817.734l0.597638 -0.167717 8.85473 -2.49095c2.27599,-0.638977 5.07048,0.622441 5.30079,2.9752l4.63111 47.2158c0.231496,2.35276 -0.698032,4.66181 -2.97402,5.30079l-2.25827 0.635434 -0.103937 0.0295276c-4.45158,-17.178 -10.7752,-41.4567 -14.048,-53.4981z"/>
   <path id="_459277352" class="fil3" d="M1266.42 818.621l3.15473 -0.887009c3.27284,12.0413 9.59646,36.3201 14.048,53.4981l-2.23347 0.628347c-2.2748,0.638977 -4.66063,-0.698032 -5.30079,-2.9752l-12.6425 -44.9646c-0.640158,-2.2748 0.698032,-4.65945 2.97402,-5.29961z"/>
   <circle id="_459256352" class="fil8" transform="matrix(0.843408 0.0330323 -0.0330323 0.843409 1007.03 1180.47)" r="86.6918"/>
   <path id="_459252728" class="fil17" d="M1017.34 1104.28c18.2221,2.4437 34.3288,11.2311 46.1304,23.9941 13.3559,14.4449 21.202,33.9862 20.3717,55.1953 -0.830316,21.2091 -10.1811,40.0772 -24.626,53.4319 -14.4437,13.3559 -33.9851,21.202 -55.1941,20.3717 -59.8902,-2.34567 -139.975,-14.9138 -214.729,-26.6457 -23.3469,-3.6626 -101.299,-10.2461 -121.168,-19.4091l0.00236221 -0.00472441c-4.78937,-2.20866 -9.04253,-5.32087 -12.5362,-9.09922 -3.4937,-3.77953 -6.26457,-8.26182 -8.09174,-13.2095l-0.00590552 0.00236221c-1.75748,-4.75867 -2.62795,-9.92363 -2.41772,-15.2776 0.209055,-5.35512 1.4811,-10.4362 3.60591,-15.0437l0.00472441 0.00354331c2.20866,-4.79055 5.32205,-9.04253 9.1004,-12.5362l0.0141732 0c3.52914,-3.26221 7.65827,-5.89016 12.1949,-7.7067 4.33465,-1.73504 9.04016,-2.72835 13.9429,-2.82047l29.9528 -3.11929 -3.43347 7.95591 -25.9276 2.51929 -0.318898 0.0153543c-4.04055,0.0578741 -7.91457,0.865749 -11.478,2.29252 -3.68268,1.47402 -7.04764,3.6189 -9.93426,6.28465l0.00708662 0.00708662c-3.10512,2.87126 -5.64567,6.32835 -7.42323,10.1858l0 0.0153543c-1.71732,3.72402 -2.74607,7.85552 -2.91733,12.2362 -0.17126,4.38071 0.531496,8.57953 1.95118,12.4264l-0.0011811 0.0141732c1.47165,3.98622 3.73229,7.62993 6.60355,10.735 2.87126,3.10394 6.32835,5.64449 10.187,7.42205l0.0141732 0c20.4402,9.42284 105.574,16.676 119.198,18.8126 74.5099,11.6929 154.334,24.2209 213.893,26.5536 19.1717,0.750001 36.8327,-6.34016 49.8851,-18.4099 13.0536,-12.0697 21.5043,-29.1225 22.2555,-48.293 0.750001,-19.1717 -6.34016,-36.8327 -18.4099,-49.8863 -10.689,-11.5606 -25.2886,-19.5106 -41.8052,-21.6992 -15.5599,-2.05866 -40.278,2.34449 -54.3544,3.73465l-186.76 18.4394 -5.42245 -0.133465 5.13898 -7.38898 188.968 -18.5398c16.7209,-1.64055 36.9331,-5.64922 53.5323,-3.42638z"/>
   <circle id="_459255920" class="fil18" transform="matrix(0.738912 0.0289397 -0.0289397 0.738913 1007.03 1180.47)" r="32.7957"/>
   <path id="_459248216" class="fil19" d="M1007.22 1168.94l0.0011811 0c7.09961,0 13.2614,5.81811 12.9059,12.9071l-5.92087 117.85c-0.49252,9.80198 -10.8059,10.0063 -11.5158,0l-8.37638 -117.85c-0.501969,-7.08071 5.80748,-12.9071 12.9059,-12.9071z"/>
   <rect id="_459246872" class="fil14" x="968.617" y="1296.99" width="81.6291" height="29.4633" rx="7.56851" ry="7.56851"/>
  </g>
 </g>
</svg>
